<svg width="39" height="40" viewBox="0 0 39 40" fill="none" xmlns="http://www.w3.org/2000/svg">
<path d="M19.5 24.875C22.1924 24.875 24.375 22.6924 24.375 20C24.375 17.3076 22.1924 15.125 19.5 15.125C16.8076 15.125 14.625 17.3076 14.625 20C14.625 22.6924 16.8076 24.875 19.5 24.875Z" stroke="black" stroke-width="2.4375"/>
<path opacity="0.5" d="M22.3681 3.997C21.7717 3.75 21.0145 3.75 19.5 3.75C17.9855 3.75 17.2282 3.75 16.6319 3.997C16.2373 4.16033 15.8788 4.39983 15.5768 4.7018C15.2748 5.00377 15.0353 5.36229 14.872 5.75687C14.7225 6.11925 14.6624 6.54338 14.6396 7.15925C14.6295 7.60448 14.5064 8.03984 14.2818 8.42443C14.0573 8.80902 13.7386 9.13022 13.3559 9.35788C12.9673 9.57569 12.5298 9.69116 12.0844 9.69344C11.6389 9.69571 11.2002 9.58472 10.8095 9.37088C10.2635 9.08163 9.86862 8.92238 9.477 8.87038C8.62277 8.75804 7.75889 8.9895 7.07525 9.51387C6.565 9.90875 6.18475 10.5636 5.4275 11.875C4.67025 13.1864 4.29 13.8412 4.20712 14.4831C4.15128 14.9064 4.17937 15.3365 4.28978 15.7488C4.4002 16.1612 4.59077 16.5478 4.85062 16.8865C5.09112 17.1985 5.4275 17.4601 5.94912 17.7884C6.71775 18.271 7.21175 19.0932 7.21175 20C7.21175 20.9068 6.71775 21.729 5.94912 22.21C5.4275 22.5399 5.0895 22.8015 4.85062 23.1135C4.59077 23.4522 4.4002 23.8388 4.28978 24.2512C4.17937 24.6635 4.15128 25.0936 4.20712 25.5169C4.29162 26.1571 4.67025 26.8136 5.42587 28.125C6.18475 29.4364 6.56337 30.0912 7.07525 30.4861C7.41396 30.746 7.80054 30.9366 8.21292 31.047C8.6253 31.1574 9.05539 31.1855 9.47863 31.1296C9.86863 31.0776 10.2635 30.9184 10.8095 30.6291C11.2002 30.4153 11.6389 30.3043 12.0844 30.3066C12.5298 30.3088 12.9673 30.4243 13.3559 30.6421C14.1407 31.0971 14.6071 31.934 14.6396 32.8408C14.6624 33.4583 14.7209 33.8807 14.872 34.2431C15.0353 34.6377 15.2748 34.9962 15.5768 35.2982C15.8788 35.6002 16.2373 35.8397 16.6319 36.003C17.2282 36.25 17.9855 36.25 19.5 36.25C21.0145 36.25 21.7717 36.25 22.3681 36.003C22.7627 35.8397 23.1212 35.6002 23.4232 35.2982C23.7252 34.9962 23.9647 34.6377 24.128 34.2431C24.2775 33.8807 24.3376 33.4583 24.3604 32.8408C24.3929 31.934 24.8592 31.0955 25.6441 30.6421C26.0327 30.4243 26.4702 30.3088 26.9156 30.3066C27.3611 30.3043 27.7998 30.4153 28.1905 30.6291C28.7365 30.9184 29.1314 31.0776 29.5214 31.1296C29.9446 31.1855 30.3747 31.1574 30.7871 31.047C31.1995 30.9366 31.586 30.746 31.9247 30.4861C32.4366 30.0929 32.8152 29.4364 33.5725 28.125C34.3297 26.8136 34.71 26.1588 34.7929 25.5169C34.8487 25.0936 34.8206 24.6635 34.7102 24.2512C34.5998 23.8388 34.4092 23.4522 34.1494 23.1135C33.9089 22.8015 33.5725 22.5399 33.0509 22.2116C32.6702 21.9802 32.3546 21.6559 32.1337 21.269C31.9129 20.8821 31.794 20.4454 31.7882 20C31.7882 19.0932 32.2823 18.271 33.0509 17.79C33.5725 17.4601 33.9105 17.1985 34.1494 16.8865C34.4092 16.5478 34.5998 16.1612 34.7102 15.7488C34.8206 15.3365 34.8487 14.9064 34.7929 14.4831C34.7084 13.8429 34.3297 13.1864 33.5741 11.875C32.8152 10.5636 32.4366 9.90875 31.9247 9.51387C31.586 9.25402 31.1995 9.06345 30.7871 8.95303C30.3747 8.84262 29.9446 8.81453 29.5214 8.87038C29.1314 8.92238 28.7365 9.08163 28.1889 9.37088C27.7983 9.58443 27.3599 9.69526 26.9148 9.69299C26.4697 9.69071 26.0325 9.5754 25.6441 9.35788C25.2614 9.13022 24.9427 8.80902 24.7182 8.42443C24.4936 8.03984 24.3705 7.60448 24.3604 7.15925C24.3376 6.54175 24.2791 6.11925 24.128 5.75687C23.9647 5.36229 23.7252 5.00377 23.4232 4.7018C23.1212 4.39983 22.7627 4.16033 22.3681 3.997Z" stroke="black" stroke-width="2.4375"/>
</svg>
